Coordinates
version=1
nRows=26
nColumns=24
inDegrees=yes

Units are S.I. units (second, meters, Newtons, ...)
Angles are in degrees.

endheader
time	pelvis_tilt	pelvis_list	pelvis_rotation	pelvis_tx	pelvis_ty	pelvis_tz	hip_flexion_r	hip_adduction_r	hip_rotation_r	knee_angle_r	ankle_angle_r	subtalar_angle_r	mtp_angle_r	hip_flexion_l	hip_adduction_l	hip_rotation_l	knee_angle_l	ankle_angle_l	subtalar_angle_l	mtp_angle_l	lumbar_extension	lumbar_bending	lumbar_rotation
      0.77500000	      0.47607817	     -4.05178532	      8.89816106	     -0.42749503	      1.03559620	      0.32293371	      7.26595543	     10.61325399	     -4.72416098	     -9.31584669	      0.54068416	    -13.24552217	      3.25826971	     16.17147586	     -8.02209197	     -1.91690909	    -67.03001535	     -1.78383541	     -0.51021703	      5.44002520	     -4.28561715	      1.91572457	     -3.35649414
      0.77916667	      0.44458856	     -3.89764108	      8.89337527	     -0.42246862	      1.03632955	      0.32308356	      6.82600024	     10.50960742	     -4.68513567	     -9.04246695	      0.64010961	    -13.15850188	      3.23986331	     16.69682518	     -7.83148909	     -1.87641968	    -66.69105916	     -1.19346402	     -0.97197301	      5.37521174	     -4.31643069	      1.71247474	     -3.26700991
      0.78333333	      0.41277968	     -3.71042388	      8.87670965	     -0.41749270	      1.03709021	      0.32323872	      6.38795279	     10.36824359	     -4.63527857	     -8.78200301	      0.76471494	    -13.01778341	      3.20130242	     17.19186889	     -7.59012605	     -1.83471025	    -66.26219807	     -0.69409327	     -1.47556775	      5.23376305	     -4.38925155	      1.45564958	     -3.12343929
      0.78750000	      0.39154152	     -3.53702803	      8.85969589	     -0.41249825	      1.03783883	      0.32338321	      5.93380376	     10.24175942	     -4.60389829	     -8.50704433	      0.89588015	    -12.86296966	      3.14849679	     17.65874377	     -7.36788010	     -1.80124260	    -65.77306959	     -0.19631125	     -1.91606327	      5.04989721	     -4.43270894	      1.23311702	     -3.00302468
      0.79166667	      0.35000055	     -3.38352274	      8.84234724	     -0.40749660	      1.03850174	      0.32353954	      5.50329768	     10.13511577	     -4.57880036	     -8.22391560	      0.98479911	    -12.76943268	      3.13156320	     18.13780182	     -7.16866532	     -1.77324243	    -65.23910551	      0.34691526	     -2.26132150	      4.99711362	     -4.42107609	      1.03546145	     -2.96591223
      0.79583333	      0.31082492	     -3.18964224	      8.80648369	     -0.40255564	      1.03918517	      0.32366902	      5.10302035	      9.97009340	     -4.63715210	     -8.03232634	      1.27099743	    -12.38263269	      2.74358708	     18.57773891	     -6.90628044	     -1.74492702	    -64.61776754	      0.81342485	     -2.61599567	      3.76898156	     -4.46056144	      0.77935356	     -2.68407522
      0.80000000	      0.31211012	     -3.00057830	      8.76012381	     -0.39761449	      1.03990753	      0.32384190	      4.61319257	      9.83710378	     -4.51572611	     -7.72896463	      1.31299053	    -12.37014621	      2.71128085	     18.95110065	     -6.66593189	     -1.74187707	    -63.92497497	      1.19771513	     -3.04838717	      3.67990708	     -4.55562742	      0.54802268	     -2.71131929
      0.80416667	      0.26283883	     -2.81247243	      8.70183097	     -0.39270062	      1.04051594	      0.32401571	      4.20679896	      9.68958560	     -4.44312075	     -7.48565210	      1.40341678	    -12.28380708	      2.68693052	     19.36001345	     -6.41267656	     -1.73600710	    -63.17747361	      1.62052160	     -3.37654459	      3.61674654	     -4.59253963	      0.31813398	     -2.64826855
      0.80833333	      0.24681733	     -2.62863865	      8.63403617	     -0.38779815	      1.04113960	      0.32419398	      3.76735399	      9.55101256	     -4.37327627	     -7.24451057	      1.52094672	    -12.16472275	      2.66032475	     19.71135702	     -6.17233818	     -1.74341418	    -62.36726690	      1.99810402	     -3.70760213	      3.54958901	     -4.66389889	      0.08875068	     -2.54887098
      0.81250000	      0.22810545	     -2.42719399	      8.55031604	     -0.38289385	      1.04175800	      0.32438593	      3.33259108	      9.39119093	     -4.29518954	     -7.01467049	      1.65448269	    -12.02762087	      2.62898263	     20.03118062	     -5.91086836	     -1.76226905	    -61.47859130	      2.33149386	     -4.02573708	      3.47388800	     -4.73229750	     -0.16408430	     -2.42711468
      0.81666667	      0.20304616	     -2.25064629	      8.46013354	     -0.37800388	      1.04229048	      0.32459153	      2.91291223	      9.25771693	     -4.21358713	     -6.78857445	      1.78798681	    -11.89544148	      2.59909530	     20.34880414	     -5.68103550	     -1.78832474	    -60.55117305	      2.67767913	     -4.31769481	      3.40660711	     -4.79023524	     -0.40390701	     -2.31167526
      0.82083333	      0.19187915	     -2.04757576	      8.34709831	     -0.37313684	      1.04286409	      0.32479397	      2.48517281	      9.09345725	     -4.11366892	     -6.58554609	      1.93344382	    -11.75359971	      2.56169718	     20.60988600	     -5.41713453	     -1.82275566	    -59.53215727	      2.94975047	     -4.61428008	      3.32496147	     -4.87362725	     -0.63923276	     -2.16427708
      0.82500000	      0.20689523	     -1.86297117	      8.23700572	     -0.36825712	      1.04340884	      0.32500156	      2.02248886	      8.95381017	     -4.01157582	     -6.36028016	      2.10270786	    -11.58248367	      2.49638998	     20.82890047	     -5.18128088	     -1.85747962	    -58.46497588	      3.17726922	     -4.92453453	      3.19093919	     -4.96926916	     -0.86485107	     -1.95405680
      0.82916667	      0.19532119	     -1.68447601	      8.10290144	     -0.36340287	      1.04388267	      0.32522902	      1.60887505	      8.81418665	     -3.89577761	     -6.17232740	      2.25368148	    -11.45005390	      2.42827999	     21.05256880	     -4.95218490	     -1.91006489	    -57.34044162	      3.42464536	     -5.18950150	      3.06091629	     -5.04483988	     -1.08357024	     -1.79069861
      0.83333333	      0.18801997	     -1.50640230	      7.95934797	     -0.35855450	      1.04432669	      0.32546441	      1.19494003	      8.67370486	     -3.76646342	     -5.99004803	      2.40173957	    -11.31403816	      2.34432899	     21.24627916	     -4.72217423	     -1.96179632	    -56.15335084	      3.63765148	     -5.47541414	      2.90626172	     -5.13002940	     -1.30059705	     -1.60388910
      0.83750000	      0.18174080	     -1.32366550	      7.79384819	     -0.35371291	      1.04474802	      0.32571342	      0.79500628	      8.52367075	     -3.65320558	     -5.83659757	      2.54011662	    -11.17637367	      2.19114830	     21.40896604	     -4.49243308	     -2.03875923	    -54.90228503	      3.84904531	     -5.77277411	      2.64022686	     -5.21255383	     -1.52321719	     -1.37182024
      0.84166667	      0.13790641	     -1.15985951	      7.61630336	     -0.34888463	      1.04503231	      0.32600240	      0.44262961	      8.39236592	     -3.46588527	     -5.69454489	      2.71295428	    -11.10917507	      2.14118471	     21.59942813	     -4.28798501	     -2.12603987	    -53.60724912	      4.00589589	     -5.98357760	      2.54696127	     -5.25704719	     -1.73835415	     -1.28195909
      0.84583333	      0.13051981	     -0.98289223	      7.43101696	     -0.34404662	      1.04537328	      0.32627823	      0.04650506	      8.24698059	     -3.29549089	     -5.54227472	      2.86629959	    -11.01358293	      2.08323619	     21.71369310	     -4.06972571	     -2.21680541	    -52.23364757	      4.11107320	     -6.27956755	      2.43952313	     -5.34302506	     -1.95714230	     -1.10379934
      0.85000000	      0.15592574	     -0.83320240	      7.25305542	     -0.33919434	      1.04570562	      0.32652935	     -0.39275515	      8.13302449	     -3.13731851	     -5.36168326	      3.02828465	    -10.89062242	      1.98995310	     21.77817609	     -3.88324785	     -2.29893717	    -50.81175281	      4.16049743	     -6.62029515	      2.27157002	     -5.43674094	     -2.12621857	     -0.83773399
      0.85416667	      0.14534930	     -0.69126912	      7.05351623	     -0.33437264	      1.04593991	      0.32679810	     -0.77076817	      8.01808310	     -2.95312993	     -5.22269124	      3.16937968	    -10.77463890	      1.86102683	     21.85900915	     -3.70030145	     -2.38565057	    -49.33941124	      4.22098497	     -6.94463747	      2.04607426	     -5.51832876	     -2.30041238	     -0.58855262
      0.85833333	      0.12554938	     -0.55158585	      6.84004146	     -0.32952475	      1.04612418	      0.32708836	     -1.13422960	      7.90177324	     -2.76745087	     -5.09357411	      3.32899517	    -10.67674670	      1.72133128	     21.92109078	     -3.52870759	     -2.50092001	    -47.80632750	      4.23074048	     -7.27272812	      1.79915953	     -5.57038141	     -2.48213136	     -0.36353224
      0.86250000	      0.11571120	     -0.42935706	      6.62135540	     -0.32467623	      1.04626518	      0.32739917	     -1.49747201	      7.80561751	     -2.58191469	     -4.98172892	      3.51254419	    -10.61673703	      1.63249852	     21.95439063	     -3.38854156	     -2.64281732	    -46.22436044	      4.20459237	     -7.57276698	      1.63217489	     -5.60971133	     -2.63219044	     -0.18856805
      0.86666667	      0.11466432	     -0.30685160	      6.40314079	     -0.31982477	      1.04639572	      0.32766935	     -1.88213355	      7.70390366	     -2.38888203	     -4.83882034	      3.66448148	    -10.51623862	      1.51450491	     21.95209441	     -3.23760763	     -2.77381383	    -44.58452222	      4.13700360	     -7.94744087	      1.41224116	     -5.69338499	     -2.77194728	      0.06921979
      0.87083333	      0.05823034	     -0.20032338	      6.15599276	     -0.31498058	      1.04637941	      0.32800155	     -2.17571158	      7.61092534	     -2.17102173	     -4.76045836	      3.83052221	    -10.45209566	      1.44317423	     21.99110034	     -3.11849849	     -2.95620447	    -42.90825221	      4.08574415	     -8.22399808	      1.26956367	     -5.71170229	     -2.93231404	      0.22477589
      0.87500000	      0.03022656	     -0.13188652	      5.90338452	     -0.31010949	      1.04636172	      0.32829182	     -2.51039927	      7.55551144	     -1.94814956	     -4.65816879	      4.08857553	    -10.25815787	      0.14365074	     21.98402371	     -3.03826119	     -3.14043104	    -41.19980578	      4.05217261	     -8.59448522	     -1.03080016	     -5.70231976	     -3.00206747	      0.76319184
      0.87916667	      0.01188324	     -0.02537657	      5.68829623	     -0.30521833	      1.04633772	      0.32854808	     -2.86381102	      7.46234968	     -1.78121053	     -4.53241216	      4.19488074	    -10.24297447	      0.11421097	     21.93281143	     -2.90948107	     -3.31771636	    -39.41094915	      3.89455079	     -8.89286800	     -1.09518053	     -5.77157095	     -3.14398143	      0.76493043
